<?xml version="1.0" encoding="utf-8"?>
<!-- Generator: Adobe Illustrator 16.0.4, SVG Export Plug-In . SVG Version: 6.00 Build 0)  -->
<!DOCTYPE svg PUBLIC "-//W3C//DTD SVG 1.1//EN" "http://www.w3.org/Graphics/SVG/1.1/DTD/svg11.dtd">
<svg version="1.1" id="Layer_1" xmlns="http://www.w3.org/2000/svg" xmlns:xlink="http://www.w3.org/1999/xlink" x="0px" y="0px"
	 width="495px" height="260px" viewBox="0 0 495 260" enable-background="new 0 0 495 260" xml:space="preserve">
<g id="pic" display="none">
</g>
<g id="guids">
</g>
<g>
	<rect x="18" width="18" height="204"/>
	<rect x="41" width="18" height="86"/>
	<rect x="0" y="54" width="14" height="32"/>
	<rect x="359" y="186" width="17" height="18"/>
	<rect x="263.832" y="241" width="17.168" height="19"/>
	<rect x="454" y="186" width="18" height="18"/>
	<rect x="173" y="54" width="18" height="150"/>
	<rect x="82" y="54" width="18" height="150"/>
	<rect x="431" y="36" width="18" height="168"/>
	<rect x="195" y="54" width="18" height="69"/>
	<rect x="359" y="54" width="17" height="69"/>
	<rect x="264" y="54" width="17" height="150"/>
	<rect x="454" y="54" width="41" height="19"/>
	<rect x="336" y="54" width="18" height="150"/>
	<rect x="381" y="54" width="18" height="69"/>
	<rect x="241" y="54" width="18" height="150"/>
	<rect x="286" y="54" width="18" height="206"/>
	<rect x="241" y="227" width="18" height="33"/>
	<rect x="381" y="150" width="18" height="54"/>
	<rect x="477" y="150" width="18" height="54"/>
	<rect x="105" y="54" fill="#B3B3B3" width="17" height="150"/>
	<rect x="82" y="54" width="18" height="150"/>
	<rect x="127" y="54" width="18" height="150"/>
</g>
</svg>
